<svg xmlns="http://www.w3.org/2000/svg" xmlns:xlink="http://www.w3.org/1999/xlink" width="500" zoomAndPan="magnify" viewBox="0 0 375 374.999991" height="500" preserveAspectRatio="xMidYMid meet" version="1.0"><defs><clipPath id="738532637a"><path d="M 105 123.355469 L 293 123.355469 L 293 233.605469 L 105 233.605469 Z M 105 123.355469 " clip-rule="nonzero"/></clipPath></defs><path fill="#000000" d="M 228.28125 151.15625 C 228.261719 151.152344 228.242188 151.148438 228.226562 151.144531 C 228.214844 151.140625 228.199219 151.140625 228.1875 151.136719 C 227.101562 150.867188 225.984375 150.722656 224.867188 150.722656 C 217.398438 150.722656 211.320312 156.792969 211.320312 164.253906 C 211.320312 167.058594 212.175781 169.738281 213.78125 172.023438 C 213.789062 172.035156 213.796875 172.046875 213.804688 172.0625 C 213.816406 172.074219 213.820312 172.09375 213.832031 172.109375 C 215.578125 174.554688 218.132812 176.371094 221.015625 177.226562 C 221.023438 177.230469 221.03125 177.234375 221.039062 177.234375 C 222.253906 177.597656 223.542969 177.785156 224.867188 177.785156 C 232.335938 177.785156 238.414062 171.714844 238.414062 164.253906 C 238.414062 161.546875 237.625 158.945312 236.128906 156.730469 C 234.285156 153.976562 231.5 151.996094 228.28125 151.15625 Z M 216.90625 171.160156 L 228.484375 154.367188 C 230.277344 155.023438 231.84375 156.136719 233.046875 157.613281 C 231.46875 159.5625 228.238281 163.996094 220.9375 174.023438 C 219.382812 173.394531 218.003906 172.417969 216.90625 171.160156 Z M 216.90625 171.160156 " fill-opacity="1" fill-rule="nonzero"/><path fill="#000000" d="M 161.105469 151.210938 L 123.382812 151.210938 C 119.734375 151.210938 116.765625 154.179688 116.765625 157.820312 L 116.765625 170.6875 C 116.765625 172.171875 117.28125 173.636719 118.21875 174.808594 C 119.480469 176.386719 121.363281 177.296875 123.382812 177.296875 L 161.105469 177.296875 C 164.761719 177.296875 167.738281 174.328125 167.738281 170.6875 L 167.738281 157.820312 C 167.738281 156.101562 167.066406 154.460938 165.84375 153.195312 C 164.578125 151.917969 162.898438 151.210938 161.105469 151.210938 Z M 150.453125 174.328125 L 164.605469 156.804688 C 164.703125 157.132812 164.769531 157.472656 164.769531 157.820312 L 164.769531 162.484375 L 155.203125 174.328125 Z M 131.429688 174.328125 L 147.703125 154.175781 L 152.449219 154.175781 L 136.164062 174.328125 Z M 119.730469 170.683594 L 119.730469 165.234375 L 128.660156 154.175781 L 133.410156 154.175781 L 119.765625 171.070312 C 119.75 170.941406 119.730469 170.8125 119.730469 170.683594 Z M 119.730469 170.683594 " fill-opacity="1" fill-rule="nonzero"/><path fill="#000000" d="M 183.867188 149.820312 L 181.925781 149.820312 C 179.550781 149.820312 177.621094 151.746094 177.621094 154.117188 L 177.621094 175.304688 C 177.621094 177.675781 179.550781 179.605469 181.925781 179.605469 L 183.867188 179.605469 C 186.242188 179.605469 188.171875 177.675781 188.171875 175.304688 L 188.171875 154.117188 C 188.171875 151.746094 186.242188 149.820312 183.867188 149.820312 Z M 183.867188 149.820312 " fill-opacity="1" fill-rule="nonzero"/><path fill="#000000" d="M 186.6875 186.464844 L 179.105469 186.464844 C 178.285156 186.464844 177.621094 187.128906 177.621094 187.949219 C 177.621094 188.765625 178.285156 189.429688 179.105469 189.429688 L 186.6875 189.429688 C 187.507812 189.429688 188.171875 188.765625 188.171875 187.949219 C 188.171875 187.128906 187.507812 186.464844 186.6875 186.464844 Z M 186.6875 186.464844 " fill-opacity="1" fill-rule="nonzero"/><g clip-path="url(#738532637a)"><path fill="#000000" d="M 291.277344 195.980469 L 284.320312 195.949219 C 284.308594 195.949219 284.296875 195.949219 284.285156 195.949219 C 282.105469 195.949219 280.058594 196.792969 278.515625 198.328125 C 276.960938 199.871094 276.109375 201.925781 276.109375 204.113281 L 276.109375 205.507812 L 265.621094 205.507812 C 265.710938 204.738281 265.753906 203.957031 265.71875 203.164062 C 265.277344 194.410156 263.769531 181.398438 259.109375 169.121094 C 254.464844 156.835938 247.996094 146.632812 243.390625 140.238281 C 239.195312 134.410156 232.375 130.925781 225.148438 130.925781 L 215.300781 130.925781 C 212.480469 125.855469 209.394531 123.355469 205.886719 123.355469 L 142.761719 123.355469 C 139.128906 123.355469 136.171875 126.3125 136.171875 129.949219 L 136.171875 130.925781 L 125.488281 130.925781 C 117.652344 130.925781 111.230469 136.796875 110.550781 144.578125 L 105.328125 203.40625 C 105.011719 207.0625 106.246094 210.703125 108.722656 213.402344 C 111.199219 216.097656 114.71875 217.644531 118.382812 217.644531 L 145.167969 217.644531 C 145.148438 217.964844 145.121094 218.285156 145.121094 218.621094 C 145.121094 226.898438 151.863281 233.632812 160.152344 233.632812 C 168.441406 233.632812 175.183594 226.898438 175.183594 218.621094 C 175.183594 218.285156 175.160156 217.964844 175.140625 217.644531 L 251.890625 217.644531 C 254.503906 217.644531 257.019531 216.894531 259.222656 215.523438 L 262.171875 215.523438 L 262.171875 219.707031 C 259.988281 221.003906 258.625 223.347656 258.625 225.941406 C 258.625 229.9375 261.882812 233.1875 265.882812 233.1875 C 269.882812 233.1875 273.136719 229.9375 273.136719 225.941406 C 273.136719 223.707031 272.082031 221.585938 270.332031 220.222656 L 270.332031 215.523438 L 280.945312 215.523438 C 283.710938 215.523438 285.960938 213.277344 285.960938 210.515625 L 285.960938 206.753906 C 285.960938 205.976562 286.589844 205.34375 287.367188 205.34375 L 291.273438 205.34375 C 292.089844 205.34375 292.753906 204.683594 292.753906 203.863281 L 292.753906 197.460938 C 292.757812 196.644531 292.09375 195.984375 291.277344 195.980469 Z M 204.402344 214.679688 L 174.964844 214.679688 L 174.964844 154.101562 C 174.964844 150.015625 178.292969 146.691406 182.382812 146.691406 L 196.984375 146.691406 C 201.078125 146.691406 204.40625 150.015625 204.40625 154.101562 L 204.40625 214.679688 Z M 165.839844 218.621094 C 165.839844 221.753906 163.289062 224.296875 160.15625 224.296875 C 157.011719 224.296875 154.457031 221.753906 154.457031 218.621094 C 154.457031 215.484375 157.011719 212.933594 160.15625 212.933594 C 163.289062 212.933594 165.839844 215.484375 165.839844 218.621094 Z M 207.371094 214.679688 L 207.371094 154.101562 C 207.371094 148.382812 202.710938 143.730469 196.984375 143.730469 L 182.382812 143.730469 C 176.65625 143.730469 171.996094 148.382812 171.996094 154.101562 L 171.996094 209.378906 C 169.226562 205.832031 164.921875 203.597656 160.152344 203.597656 C 153.296875 203.597656 147.386719 208.203125 145.660156 214.679688 L 118.382812 214.679688 C 115.507812 214.679688 112.855469 213.515625 110.914062 211.402344 C 108.96875 209.28125 108.035156 206.535156 108.285156 203.667969 L 113.507812 144.835938 C 114.054688 138.597656 119.203125 133.890625 125.492188 133.890625 L 225.148438 133.890625 C 231.425781 133.890625 237.339844 136.910156 240.980469 141.96875 C 245.484375 148.222656 251.800781 158.183594 256.335938 170.171875 C 260.859375 182.089844 262.324219 194.773438 262.753906 203.308594 C 262.804688 204.375 262.691406 205.414062 262.453125 206.40625 C 262.421875 206.476562 262.421875 206.5625 262.402344 206.640625 C 261.726562 209.160156 260.164062 211.351562 258.003906 212.8125 C 256.199219 214.03125 254.082031 214.675781 251.890625 214.675781 L 207.371094 214.675781 Z M 267.367188 218.855469 C 266.640625 218.707031 265.886719 218.675781 265.140625 218.75 L 265.140625 215.523438 L 267.367188 215.523438 Z M 289.789062 202.382812 L 287.371094 202.382812 C 285.214844 202.382812 283.429688 203.949219 283.070312 206 C 282.40625 205.6875 281.6875 205.507812 280.945312 205.507812 L 279.074219 205.507812 L 279.074219 204.113281 C 279.074219 202.71875 279.621094 201.414062 280.609375 200.429688 C 281.597656 199.445312 282.933594 198.871094 284.308594 198.914062 L 289.789062 198.9375 Z M 289.789062 202.382812 " fill-opacity="1" fill-rule="nonzero"/></g></svg>